<mxfile host="app.diagrams.net" modified="2023-10-14T00:29:20.124Z" agent="Mozilla/5.0 (Windows NT 10.0; Win64; x64) AppleWebKit/537.36 (KHTML, like Gecko) Chrome/118.0.0.0 Safari/537.36" etag="1fS_T_Mk0uxgrxtojlNy" version="22.0.4" type="github">
  <diagram id="C5RBs43oDa-KdzZeNtuy" name="Page-1">
    <mxGraphModel dx="2442" dy="871" grid="0" gridSize="10" guides="1" tooltips="1" connect="1" arrows="1" fold="1" page="1" pageScale="1" pageWidth="827" pageHeight="1169" math="0" shadow="0">
      <root>
        <mxCell id="WIyWlLk6GJQsqaUBKTNV-0" />
        <mxCell id="WIyWlLk6GJQsqaUBKTNV-1" parent="WIyWlLk6GJQsqaUBKTNV-0" />
        <mxCell id="LoxbZ-BBBxb4CLW1c9WT-0" value="Usuario" style="swimlane;fontStyle=2;align=center;verticalAlign=top;childLayout=stackLayout;horizontal=1;startSize=26;horizontalStack=0;resizeParent=1;resizeLast=0;collapsible=1;marginBottom=0;rounded=0;shadow=0;strokeWidth=1;" parent="WIyWlLk6GJQsqaUBKTNV-1" vertex="1">
          <mxGeometry x="-197" width="160" height="164" as="geometry">
            <mxRectangle x="230" y="140" width="160" height="26" as="alternateBounds" />
          </mxGeometry>
        </mxCell>
        <mxCell id="LoxbZ-BBBxb4CLW1c9WT-1" value="Nombre" style="text;align=left;verticalAlign=top;spacingLeft=4;spacingRight=4;overflow=hidden;rotatable=0;points=[[0,0.5],[1,0.5]];portConstraint=eastwest;" parent="LoxbZ-BBBxb4CLW1c9WT-0" vertex="1">
          <mxGeometry y="26" width="160" height="26" as="geometry" />
        </mxCell>
        <mxCell id="LoxbZ-BBBxb4CLW1c9WT-2" value="CI" style="text;align=left;verticalAlign=top;spacingLeft=4;spacingRight=4;overflow=hidden;rotatable=0;points=[[0,0.5],[1,0.5]];portConstraint=eastwest;rounded=0;shadow=0;html=0;" parent="LoxbZ-BBBxb4CLW1c9WT-0" vertex="1">
          <mxGeometry y="52" width="160" height="26" as="geometry" />
        </mxCell>
        <mxCell id="LoxbZ-BBBxb4CLW1c9WT-3" value="Correo" style="text;align=left;verticalAlign=top;spacingLeft=4;spacingRight=4;overflow=hidden;rotatable=0;points=[[0,0.5],[1,0.5]];portConstraint=eastwest;rounded=0;shadow=0;html=0;" parent="LoxbZ-BBBxb4CLW1c9WT-0" vertex="1">
          <mxGeometry y="78" width="160" height="26" as="geometry" />
        </mxCell>
        <mxCell id="LoxbZ-BBBxb4CLW1c9WT-4" value="Contraseña" style="text;align=left;verticalAlign=top;spacingLeft=4;spacingRight=4;overflow=hidden;rotatable=0;points=[[0,0.5],[1,0.5]];portConstraint=eastwest;rounded=0;shadow=0;html=0;" parent="LoxbZ-BBBxb4CLW1c9WT-0" vertex="1">
          <mxGeometry y="104" width="160" height="26" as="geometry" />
        </mxCell>
        <mxCell id="LoxbZ-BBBxb4CLW1c9WT-5" value="" style="line;html=1;strokeWidth=1;align=left;verticalAlign=middle;spacingTop=-1;spacingLeft=3;spacingRight=3;rotatable=0;labelPosition=right;points=[];portConstraint=eastwest;" parent="LoxbZ-BBBxb4CLW1c9WT-0" vertex="1">
          <mxGeometry y="130" width="160" height="8" as="geometry" />
        </mxCell>
        <mxCell id="LoxbZ-BBBxb4CLW1c9WT-6" value="Login()" style="text;align=left;verticalAlign=top;spacingLeft=4;spacingRight=4;overflow=hidden;rotatable=0;points=[[0,0.5],[1,0.5]];portConstraint=eastwest;rounded=0;shadow=0;html=0;" parent="LoxbZ-BBBxb4CLW1c9WT-0" vertex="1">
          <mxGeometry y="138" width="160" height="26" as="geometry" />
        </mxCell>
        <mxCell id="LoxbZ-BBBxb4CLW1c9WT-7" value="Estudiante" style="swimlane;fontStyle=0;align=center;verticalAlign=top;childLayout=stackLayout;horizontal=1;startSize=26;horizontalStack=0;resizeParent=1;resizeLast=0;collapsible=1;marginBottom=0;rounded=0;shadow=0;strokeWidth=1;" parent="WIyWlLk6GJQsqaUBKTNV-1" vertex="1">
          <mxGeometry x="-197" y="200" width="160" height="216" as="geometry">
            <mxRectangle x="130" y="380" width="160" height="26" as="alternateBounds" />
          </mxGeometry>
        </mxCell>
        <mxCell id="LoxbZ-BBBxb4CLW1c9WT-8" value="Campus" style="text;align=left;verticalAlign=top;spacingLeft=4;spacingRight=4;overflow=hidden;rotatable=0;points=[[0,0.5],[1,0.5]];portConstraint=eastwest;" parent="LoxbZ-BBBxb4CLW1c9WT-7" vertex="1">
          <mxGeometry y="26" width="160" height="26" as="geometry" />
        </mxCell>
        <mxCell id="LoxbZ-BBBxb4CLW1c9WT-9" value="Carrera" style="text;align=left;verticalAlign=top;spacingLeft=4;spacingRight=4;overflow=hidden;rotatable=0;points=[[0,0.5],[1,0.5]];portConstraint=eastwest;rounded=0;shadow=0;html=0;" parent="LoxbZ-BBBxb4CLW1c9WT-7" vertex="1">
          <mxGeometry y="52" width="160" height="26" as="geometry" />
        </mxCell>
        <mxCell id="LoxbZ-BBBxb4CLW1c9WT-10" value="Insignias" style="text;align=left;verticalAlign=top;spacingLeft=4;spacingRight=4;overflow=hidden;rotatable=0;points=[[0,0.5],[1,0.5]];portConstraint=eastwest;rounded=0;shadow=0;html=0;" parent="LoxbZ-BBBxb4CLW1c9WT-7" vertex="1">
          <mxGeometry y="78" width="160" height="26" as="geometry" />
        </mxCell>
        <mxCell id="LoxbZ-BBBxb4CLW1c9WT-11" value="Calificación" style="text;align=left;verticalAlign=top;spacingLeft=4;spacingRight=4;overflow=hidden;rotatable=0;points=[[0,0.5],[1,0.5]];portConstraint=eastwest;rounded=0;shadow=0;html=0;" parent="LoxbZ-BBBxb4CLW1c9WT-7" vertex="1">
          <mxGeometry y="104" width="160" height="26" as="geometry" />
        </mxCell>
        <mxCell id="LoxbZ-BBBxb4CLW1c9WT-12" value="" style="line;html=1;strokeWidth=1;align=left;verticalAlign=middle;spacingTop=-1;spacingLeft=3;spacingRight=3;rotatable=0;labelPosition=right;points=[];portConstraint=eastwest;" parent="LoxbZ-BBBxb4CLW1c9WT-7" vertex="1">
          <mxGeometry y="130" width="160" height="8" as="geometry" />
        </mxCell>
        <mxCell id="LoxbZ-BBBxb4CLW1c9WT-13" value="CrearCuenta()" style="text;align=left;verticalAlign=top;spacingLeft=4;spacingRight=4;overflow=hidden;rotatable=0;points=[[0,0.5],[1,0.5]];portConstraint=eastwest;rounded=0;shadow=0;html=0;" parent="LoxbZ-BBBxb4CLW1c9WT-7" vertex="1">
          <mxGeometry y="138" width="160" height="26" as="geometry" />
        </mxCell>
        <mxCell id="LoxbZ-BBBxb4CLW1c9WT-14" value="Ver_mi_perfil(id_estudiante)" style="text;align=left;verticalAlign=top;spacingLeft=4;spacingRight=4;overflow=hidden;rotatable=0;points=[[0,0.5],[1,0.5]];portConstraint=eastwest;rounded=0;shadow=0;html=0;" parent="LoxbZ-BBBxb4CLW1c9WT-7" vertex="1">
          <mxGeometry y="164" width="160" height="26" as="geometry" />
        </mxCell>
        <mxCell id="LoxbZ-BBBxb4CLW1c9WT-16" value="" style="endArrow=block;endSize=10;endFill=0;shadow=0;strokeWidth=1;rounded=0;edgeStyle=elbowEdgeStyle;elbow=vertical;exitX=0.5;exitY=0;exitDx=0;exitDy=0;" parent="WIyWlLk6GJQsqaUBKTNV-1" source="LoxbZ-BBBxb4CLW1c9WT-7" target="LoxbZ-BBBxb4CLW1c9WT-6" edge="1">
          <mxGeometry width="160" relative="1" as="geometry">
            <mxPoint x="-277" y="340" as="sourcePoint" />
            <mxPoint x="-207" y="148" as="targetPoint" />
          </mxGeometry>
        </mxCell>
        <mxCell id="LoxbZ-BBBxb4CLW1c9WT-17" value="Administrador" style="swimlane;fontStyle=0;align=center;verticalAlign=top;childLayout=stackLayout;horizontal=1;startSize=26;horizontalStack=0;resizeParent=1;resizeLast=0;collapsible=1;marginBottom=0;rounded=0;shadow=0;strokeWidth=1;" parent="WIyWlLk6GJQsqaUBKTNV-1" vertex="1">
          <mxGeometry x="40" y="78" width="177" height="112" as="geometry">
            <mxRectangle x="340" y="380" width="170" height="26" as="alternateBounds" />
          </mxGeometry>
        </mxCell>
        <mxCell id="LoxbZ-BBBxb4CLW1c9WT-19" value="" style="line;html=1;strokeWidth=1;align=left;verticalAlign=middle;spacingTop=-1;spacingLeft=3;spacingRight=3;rotatable=0;labelPosition=right;points=[];portConstraint=eastwest;" parent="LoxbZ-BBBxb4CLW1c9WT-17" vertex="1">
          <mxGeometry y="26" width="177" height="8" as="geometry" />
        </mxCell>
        <mxCell id="LoxbZ-BBBxb4CLW1c9WT-20" value="VerSolicitudes()" style="text;align=left;verticalAlign=top;spacingLeft=4;spacingRight=4;overflow=hidden;rotatable=0;points=[[0,0.5],[1,0.5]];portConstraint=eastwest;" parent="LoxbZ-BBBxb4CLW1c9WT-17" vertex="1">
          <mxGeometry y="34" width="177" height="26" as="geometry" />
        </mxCell>
        <mxCell id="LoxbZ-BBBxb4CLW1c9WT-21" value="AceptarSolicitud(id_solicitud)" style="text;align=left;verticalAlign=top;spacingLeft=4;spacingRight=4;overflow=hidden;rotatable=0;points=[[0,0.5],[1,0.5]];portConstraint=eastwest;" parent="LoxbZ-BBBxb4CLW1c9WT-17" vertex="1">
          <mxGeometry y="60" width="177" height="26" as="geometry" />
        </mxCell>
        <mxCell id="C6bVtd2_61c9-cEvLfGj-0" value="RechazarSolicitud(id_solicitud)" style="text;align=left;verticalAlign=top;spacingLeft=4;spacingRight=4;overflow=hidden;rotatable=0;points=[[0,0.5],[1,0.5]];portConstraint=eastwest;" vertex="1" parent="LoxbZ-BBBxb4CLW1c9WT-17">
          <mxGeometry y="86" width="177" height="26" as="geometry" />
        </mxCell>
        <mxCell id="LoxbZ-BBBxb4CLW1c9WT-23" value="" style="endArrow=block;endSize=10;endFill=0;shadow=0;strokeWidth=1;rounded=0;edgeStyle=elbowEdgeStyle;elbow=vertical;" parent="WIyWlLk6GJQsqaUBKTNV-1" source="LoxbZ-BBBxb4CLW1c9WT-17" edge="1">
          <mxGeometry width="160" relative="1" as="geometry">
            <mxPoint x="-187" y="363" as="sourcePoint" />
            <mxPoint x="-30" y="40" as="targetPoint" />
            <Array as="points">
              <mxPoint x="143" y="40" />
            </Array>
          </mxGeometry>
        </mxCell>
        <mxCell id="LoxbZ-BBBxb4CLW1c9WT-24" value="Alumno" style="swimlane;fontStyle=0;align=center;verticalAlign=top;childLayout=stackLayout;horizontal=1;startSize=26;horizontalStack=0;resizeParent=1;resizeLast=0;collapsible=1;marginBottom=0;rounded=0;shadow=0;strokeWidth=1;" parent="WIyWlLk6GJQsqaUBKTNV-1" vertex="1">
          <mxGeometry x="-421" y="500" width="160" height="138" as="geometry">
            <mxRectangle x="130" y="380" width="160" height="26" as="alternateBounds" />
          </mxGeometry>
        </mxCell>
        <mxCell id="LoxbZ-BBBxb4CLW1c9WT-25" value="" style="line;html=1;strokeWidth=1;align=left;verticalAlign=middle;spacingTop=-1;spacingLeft=3;spacingRight=3;rotatable=0;labelPosition=right;points=[];portConstraint=eastwest;" parent="LoxbZ-BBBxb4CLW1c9WT-24" vertex="1">
          <mxGeometry y="26" width="160" height="8" as="geometry" />
        </mxCell>
        <mxCell id="LoxbZ-BBBxb4CLW1c9WT-26" value="SolicitarTutoria()" style="text;align=left;verticalAlign=top;spacingLeft=4;spacingRight=4;overflow=hidden;rotatable=0;points=[[0,0.5],[1,0.5]];portConstraint=eastwest;fontStyle=0" parent="LoxbZ-BBBxb4CLW1c9WT-24" vertex="1">
          <mxGeometry y="34" width="160" height="26" as="geometry" />
        </mxCell>
        <mxCell id="LoxbZ-BBBxb4CLW1c9WT-28" value="Tutor" style="swimlane;fontStyle=0;align=center;verticalAlign=top;childLayout=stackLayout;horizontal=1;startSize=26;horizontalStack=0;resizeParent=1;resizeLast=0;collapsible=1;marginBottom=0;rounded=0;shadow=0;strokeWidth=1;" parent="WIyWlLk6GJQsqaUBKTNV-1" vertex="1">
          <mxGeometry x="30" y="500" width="160" height="138" as="geometry">
            <mxRectangle x="130" y="380" width="160" height="26" as="alternateBounds" />
          </mxGeometry>
        </mxCell>
        <mxCell id="LoxbZ-BBBxb4CLW1c9WT-29" value="" style="line;html=1;strokeWidth=1;align=left;verticalAlign=middle;spacingTop=-1;spacingLeft=3;spacingRight=3;rotatable=0;labelPosition=right;points=[];portConstraint=eastwest;" parent="LoxbZ-BBBxb4CLW1c9WT-28" vertex="1">
          <mxGeometry y="26" width="160" height="8" as="geometry" />
        </mxCell>
        <mxCell id="LoxbZ-BBBxb4CLW1c9WT-30" value="SolicitarSerTutor()" style="text;align=left;verticalAlign=top;spacingLeft=4;spacingRight=4;overflow=hidden;rotatable=0;points=[[0,0.5],[1,0.5]];portConstraint=eastwest;" parent="LoxbZ-BBBxb4CLW1c9WT-28" vertex="1">
          <mxGeometry y="34" width="160" height="26" as="geometry" />
        </mxCell>
        <mxCell id="LoxbZ-BBBxb4CLW1c9WT-31" value="Tutoría" style="swimlane;fontStyle=0;align=center;verticalAlign=top;childLayout=stackLayout;horizontal=1;startSize=26;horizontalStack=0;resizeParent=1;resizeLast=0;collapsible=1;marginBottom=0;rounded=0;shadow=0;strokeWidth=1;" parent="WIyWlLk6GJQsqaUBKTNV-1" vertex="1">
          <mxGeometry x="23" y="800.5" width="190" height="249" as="geometry">
            <mxRectangle x="340" y="380" width="170" height="26" as="alternateBounds" />
          </mxGeometry>
        </mxCell>
        <mxCell id="LoxbZ-BBBxb4CLW1c9WT-32" value="Materia" style="text;align=left;verticalAlign=top;spacingLeft=4;spacingRight=4;overflow=hidden;rotatable=0;points=[[0,0.5],[1,0.5]];portConstraint=eastwest;" parent="LoxbZ-BBBxb4CLW1c9WT-31" vertex="1">
          <mxGeometry y="26" width="190" height="26" as="geometry" />
        </mxCell>
        <mxCell id="LoxbZ-BBBxb4CLW1c9WT-33" value="Estado (en progreso, terminada)" style="text;align=left;verticalAlign=top;spacingLeft=4;spacingRight=4;overflow=hidden;rotatable=0;points=[[0,0.5],[1,0.5]];portConstraint=eastwest;" parent="LoxbZ-BBBxb4CLW1c9WT-31" vertex="1">
          <mxGeometry y="52" width="190" height="29" as="geometry" />
        </mxCell>
        <mxCell id="LoxbZ-BBBxb4CLW1c9WT-34" value="Rol" style="text;align=left;verticalAlign=top;spacingLeft=4;spacingRight=4;overflow=hidden;rotatable=0;points=[[0,0.5],[1,0.5]];portConstraint=eastwest;" parent="LoxbZ-BBBxb4CLW1c9WT-31" vertex="1">
          <mxGeometry y="81" width="190" height="26" as="geometry" />
        </mxCell>
        <mxCell id="LoxbZ-BBBxb4CLW1c9WT-35" value="" style="line;html=1;strokeWidth=1;align=left;verticalAlign=middle;spacingTop=-1;spacingLeft=3;spacingRight=3;rotatable=0;labelPosition=right;points=[];portConstraint=eastwest;" parent="LoxbZ-BBBxb4CLW1c9WT-31" vertex="1">
          <mxGeometry y="107" width="190" height="8" as="geometry" />
        </mxCell>
        <mxCell id="LoxbZ-BBBxb4CLW1c9WT-36" value="FinalizarTutoria(id_tutoria)" style="text;align=left;verticalAlign=top;spacingLeft=4;spacingRight=4;overflow=hidden;rotatable=0;points=[[0,0.5],[1,0.5]];portConstraint=eastwest;" parent="LoxbZ-BBBxb4CLW1c9WT-31" vertex="1">
          <mxGeometry y="115" width="190" height="22" as="geometry" />
        </mxCell>
        <mxCell id="LoxbZ-BBBxb4CLW1c9WT-37" value="&lt;span style=&quot;color: rgb(0, 0, 0); font-family: Helvetica; font-size: 12px; font-style: normal; font-variant-ligatures: normal; font-variant-caps: normal; font-weight: 400; letter-spacing: normal; orphans: 2; text-align: center; text-indent: 0px; text-transform: none; widows: 2; word-spacing: 0px; -webkit-text-stroke-width: 0px; background-color: rgb(255, 255, 255); text-decoration-thickness: initial; text-decoration-style: initial; text-decoration-color: initial; float: none; display: inline !important;&quot;&gt;Evaluación()&lt;/span&gt;" style="text;whiteSpace=wrap;html=1;" parent="LoxbZ-BBBxb4CLW1c9WT-31" vertex="1">
          <mxGeometry y="137" width="190" height="23" as="geometry" />
        </mxCell>
        <mxCell id="LoxbZ-BBBxb4CLW1c9WT-38" value="Visualizar_tutorías()" style="text;whiteSpace=wrap;html=1;" parent="LoxbZ-BBBxb4CLW1c9WT-31" vertex="1">
          <mxGeometry y="160" width="190" height="20" as="geometry" />
        </mxCell>
        <mxCell id="LoxbZ-BBBxb4CLW1c9WT-39" value="" style="endArrow=block;endSize=10;endFill=0;shadow=0;strokeWidth=1;rounded=0;edgeStyle=elbowEdgeStyle;elbow=vertical;exitX=0.5;exitY=0;exitDx=0;exitDy=0;entryX=0.301;entryY=1.003;entryDx=0;entryDy=0;entryPerimeter=0;" parent="WIyWlLk6GJQsqaUBKTNV-1" source="LoxbZ-BBBxb4CLW1c9WT-24" edge="1">
          <mxGeometry width="160" relative="1" as="geometry">
            <mxPoint x="-349" y="408" as="sourcePoint" />
            <mxPoint x="-148.83999999999992" y="416.078" as="targetPoint" />
            <Array as="points" />
          </mxGeometry>
        </mxCell>
        <mxCell id="LoxbZ-BBBxb4CLW1c9WT-40" value="" style="endArrow=block;endSize=10;endFill=0;shadow=0;strokeWidth=1;rounded=0;edgeStyle=elbowEdgeStyle;elbow=vertical;exitX=0.445;exitY=-0.006;exitDx=0;exitDy=0;exitPerimeter=0;entryX=0.682;entryY=1.003;entryDx=0;entryDy=0;entryPerimeter=0;" parent="WIyWlLk6GJQsqaUBKTNV-1" source="LoxbZ-BBBxb4CLW1c9WT-28" edge="1">
          <mxGeometry width="160" relative="1" as="geometry">
            <mxPoint x="-257" y="410" as="sourcePoint" />
            <mxPoint x="-87.88000000000011" y="416.078" as="targetPoint" />
          </mxGeometry>
        </mxCell>
        <mxCell id="LoxbZ-BBBxb4CLW1c9WT-41" value="Chatbot" style="swimlane;fontStyle=0;align=center;verticalAlign=top;childLayout=stackLayout;horizontal=1;startSize=26;horizontalStack=0;resizeParent=1;resizeLast=0;collapsible=1;marginBottom=0;rounded=0;shadow=0;strokeWidth=1;" parent="WIyWlLk6GJQsqaUBKTNV-1" vertex="1">
          <mxGeometry x="-671" y="216" width="369" height="150" as="geometry">
            <mxRectangle x="340" y="380" width="170" height="26" as="alternateBounds" />
          </mxGeometry>
        </mxCell>
        <mxCell id="LoxbZ-BBBxb4CLW1c9WT-42" value="Chat de Texto" style="text;align=left;verticalAlign=top;spacingLeft=4;spacingRight=4;overflow=hidden;rotatable=0;points=[[0,0.5],[1,0.5]];portConstraint=eastwest;" parent="LoxbZ-BBBxb4CLW1c9WT-41" vertex="1">
          <mxGeometry y="26" width="369" height="26" as="geometry" />
        </mxCell>
        <mxCell id="LoxbZ-BBBxb4CLW1c9WT-43" value="" style="line;html=1;strokeWidth=1;align=left;verticalAlign=middle;spacingTop=-1;spacingLeft=3;spacingRight=3;rotatable=0;labelPosition=right;points=[];portConstraint=eastwest;" parent="LoxbZ-BBBxb4CLW1c9WT-41" vertex="1">
          <mxGeometry y="52" width="369" height="8" as="geometry" />
        </mxCell>
        <mxCell id="LoxbZ-BBBxb4CLW1c9WT-44" value="EnviarPropuestaTutoria(id_solicitud, id_estudiante_alumno)" style="text;align=left;verticalAlign=top;spacingLeft=4;spacingRight=4;overflow=hidden;rotatable=0;points=[[0,0.5],[1,0.5]];portConstraint=eastwest;" parent="LoxbZ-BBBxb4CLW1c9WT-41" vertex="1">
          <mxGeometry y="60" width="369" height="26" as="geometry" />
        </mxCell>
        <mxCell id="LoxbZ-BBBxb4CLW1c9WT-45" value="EnviarPosiblesTutores()" style="text;align=left;verticalAlign=top;spacingLeft=4;spacingRight=4;overflow=hidden;rotatable=0;points=[[0,0.5],[1,0.5]];portConstraint=eastwest;" parent="LoxbZ-BBBxb4CLW1c9WT-41" vertex="1">
          <mxGeometry y="86" width="369" height="26" as="geometry" />
        </mxCell>
        <mxCell id="LoxbZ-BBBxb4CLW1c9WT-47" value="BuscarPosiblesTutores(id_solicitud)&lt;br&gt;Crear_tutoria(id_estudiante_alumno, id_estudiante_tutor,id_solicitud)" style="text;html=1;strokeColor=none;fillColor=none;align=left;verticalAlign=middle;whiteSpace=wrap;rounded=0;" parent="LoxbZ-BBBxb4CLW1c9WT-41" vertex="1">
          <mxGeometry y="112" width="369" height="30" as="geometry" />
        </mxCell>
        <mxCell id="LoxbZ-BBBxb4CLW1c9WT-48" value="Chat de Texto" style="swimlane;fontStyle=0;align=center;verticalAlign=top;childLayout=stackLayout;horizontal=1;startSize=26;horizontalStack=0;resizeParent=1;resizeLast=0;collapsible=1;marginBottom=0;rounded=0;shadow=0;strokeWidth=1;" parent="WIyWlLk6GJQsqaUBKTNV-1" vertex="1">
          <mxGeometry x="380" y="800.5" width="160" height="138" as="geometry">
            <mxRectangle x="340" y="380" width="170" height="26" as="alternateBounds" />
          </mxGeometry>
        </mxCell>
        <mxCell id="LoxbZ-BBBxb4CLW1c9WT-49" value="Historial de mensajes" style="text;align=left;verticalAlign=top;spacingLeft=4;spacingRight=4;overflow=hidden;rotatable=0;points=[[0,0.5],[1,0.5]];portConstraint=eastwest;" parent="LoxbZ-BBBxb4CLW1c9WT-48" vertex="1">
          <mxGeometry y="26" width="160" height="26" as="geometry" />
        </mxCell>
        <mxCell id="LoxbZ-BBBxb4CLW1c9WT-50" value="" style="line;html=1;strokeWidth=1;align=left;verticalAlign=middle;spacingTop=-1;spacingLeft=3;spacingRight=3;rotatable=0;labelPosition=right;points=[];portConstraint=eastwest;" parent="LoxbZ-BBBxb4CLW1c9WT-48" vertex="1">
          <mxGeometry y="52" width="160" height="8" as="geometry" />
        </mxCell>
        <mxCell id="LoxbZ-BBBxb4CLW1c9WT-51" value="IniciarChat()" style="text;html=1;strokeColor=none;fillColor=none;align=left;verticalAlign=middle;whiteSpace=wrap;rounded=0;" parent="LoxbZ-BBBxb4CLW1c9WT-48" vertex="1">
          <mxGeometry y="60" width="160" height="30" as="geometry" />
        </mxCell>
        <mxCell id="LoxbZ-BBBxb4CLW1c9WT-52" value="EnviarMensaje()" style="text;html=1;strokeColor=none;fillColor=none;align=left;verticalAlign=middle;whiteSpace=wrap;rounded=0;" parent="LoxbZ-BBBxb4CLW1c9WT-48" vertex="1">
          <mxGeometry y="90" width="160" height="30" as="geometry" />
        </mxCell>
        <mxCell id="LoxbZ-BBBxb4CLW1c9WT-53" value="" style="endArrow=classic;html=1;rounded=0;exitX=1.044;exitY=0.054;exitDx=0;exitDy=0;entryX=0.01;entryY=0.099;entryDx=0;entryDy=0;entryPerimeter=0;exitPerimeter=0;" parent="WIyWlLk6GJQsqaUBKTNV-1" source="LoxbZ-BBBxb4CLW1c9WT-31" target="LoxbZ-BBBxb4CLW1c9WT-48" edge="1">
          <mxGeometry width="50" height="50" relative="1" as="geometry">
            <mxPoint x="193" y="914" as="sourcePoint" />
            <mxPoint x="243" y="864" as="targetPoint" />
          </mxGeometry>
        </mxCell>
        <mxCell id="LoxbZ-BBBxb4CLW1c9WT-54" value="Solicitud" style="swimlane;fontStyle=0;align=center;verticalAlign=top;childLayout=stackLayout;horizontal=1;startSize=26;horizontalStack=0;resizeParent=1;resizeLast=0;collapsible=1;marginBottom=0;rounded=0;shadow=0;strokeWidth=1;" parent="WIyWlLk6GJQsqaUBKTNV-1" vertex="1">
          <mxGeometry x="-410" y="790" width="230" height="270" as="geometry">
            <mxRectangle x="340" y="380" width="170" height="26" as="alternateBounds" />
          </mxGeometry>
        </mxCell>
        <mxCell id="LoxbZ-BBBxb4CLW1c9WT-55" value="Materia" style="text;align=left;verticalAlign=top;spacingLeft=4;spacingRight=4;overflow=hidden;rotatable=0;points=[[0,0.5],[1,0.5]];portConstraint=eastwest;" parent="LoxbZ-BBBxb4CLW1c9WT-54" vertex="1">
          <mxGeometry y="26" width="230" height="26" as="geometry" />
        </mxCell>
        <mxCell id="LoxbZ-BBBxb4CLW1c9WT-56" value="Dias" style="text;align=left;verticalAlign=top;spacingLeft=4;spacingRight=4;overflow=hidden;rotatable=0;points=[[0,0.5],[1,0.5]];portConstraint=eastwest;" parent="LoxbZ-BBBxb4CLW1c9WT-54" vertex="1">
          <mxGeometry y="52" width="230" height="26" as="geometry" />
        </mxCell>
        <mxCell id="LoxbZ-BBBxb4CLW1c9WT-57" value="Horario" style="text;align=left;verticalAlign=top;spacingLeft=4;spacingRight=4;overflow=hidden;rotatable=0;points=[[0,0.5],[1,0.5]];portConstraint=eastwest;" parent="LoxbZ-BBBxb4CLW1c9WT-54" vertex="1">
          <mxGeometry y="78" width="230" height="26" as="geometry" />
        </mxCell>
        <mxCell id="LoxbZ-BBBxb4CLW1c9WT-58" value="Rol" style="text;align=left;verticalAlign=top;spacingLeft=4;spacingRight=4;overflow=hidden;rotatable=0;points=[[0,0.5],[1,0.5]];portConstraint=eastwest;" parent="LoxbZ-BBBxb4CLW1c9WT-54" vertex="1">
          <mxGeometry y="104" width="230" height="26" as="geometry" />
        </mxCell>
        <mxCell id="LoxbZ-BBBxb4CLW1c9WT-59" value="Estado (pendiente, cancelado, aceoptado)" style="text;align=left;verticalAlign=top;spacingLeft=4;spacingRight=4;overflow=hidden;rotatable=0;points=[[0,0.5],[1,0.5]];portConstraint=eastwest;" parent="LoxbZ-BBBxb4CLW1c9WT-54" vertex="1">
          <mxGeometry y="130" width="230" height="46" as="geometry" />
        </mxCell>
        <mxCell id="LoxbZ-BBBxb4CLW1c9WT-60" value="" style="line;html=1;strokeWidth=1;align=left;verticalAlign=middle;spacingTop=-1;spacingLeft=3;spacingRight=3;rotatable=0;labelPosition=right;points=[];portConstraint=eastwest;" parent="LoxbZ-BBBxb4CLW1c9WT-54" vertex="1">
          <mxGeometry y="176" width="230" height="8" as="geometry" />
        </mxCell>
        <mxCell id="LoxbZ-BBBxb4CLW1c9WT-61" value="Visualizar_solicitudes()" style="text;html=1;strokeColor=none;fillColor=none;align=left;verticalAlign=middle;whiteSpace=wrap;rounded=0;" parent="LoxbZ-BBBxb4CLW1c9WT-54" vertex="1">
          <mxGeometry y="184" width="230" height="30" as="geometry" />
        </mxCell>
        <mxCell id="c9Z6ZMW4_ZhZTcx_s8q3-0" value="Cancelar_solicitud(id_solicitud)" style="text;html=1;strokeColor=none;fillColor=none;align=left;verticalAlign=middle;whiteSpace=wrap;rounded=0;" parent="LoxbZ-BBBxb4CLW1c9WT-54" vertex="1">
          <mxGeometry y="214" width="230" height="30" as="geometry" />
        </mxCell>
        <mxCell id="LoxbZ-BBBxb4CLW1c9WT-62" style="edgeStyle=orthogonalEdgeStyle;rounded=0;orthogonalLoop=1;jettySize=auto;html=1;exitX=0.25;exitY=1;exitDx=0;exitDy=0;entryX=0.706;entryY=0.004;entryDx=0;entryDy=0;entryPerimeter=0;" parent="WIyWlLk6GJQsqaUBKTNV-1" source="LoxbZ-BBBxb4CLW1c9WT-28" target="LoxbZ-BBBxb4CLW1c9WT-54" edge="1">
          <mxGeometry relative="1" as="geometry">
            <Array as="points">
              <mxPoint x="70" y="690" />
              <mxPoint x="-248" y="690" />
            </Array>
          </mxGeometry>
        </mxCell>
        <mxCell id="LoxbZ-BBBxb4CLW1c9WT-69" style="edgeStyle=orthogonalEdgeStyle;rounded=0;orthogonalLoop=1;jettySize=auto;html=1;exitX=0.75;exitY=1;exitDx=0;exitDy=0;entryX=0.25;entryY=0;entryDx=0;entryDy=0;" parent="WIyWlLk6GJQsqaUBKTNV-1" source="LoxbZ-BBBxb4CLW1c9WT-24" target="LoxbZ-BBBxb4CLW1c9WT-31" edge="1">
          <mxGeometry relative="1" as="geometry">
            <mxPoint x="-205" y="598" as="sourcePoint" />
            <mxPoint x="-156" y="622" as="targetPoint" />
          </mxGeometry>
        </mxCell>
        <mxCell id="LoxbZ-BBBxb4CLW1c9WT-70" style="edgeStyle=orthogonalEdgeStyle;rounded=0;orthogonalLoop=1;jettySize=auto;html=1;" parent="WIyWlLk6GJQsqaUBKTNV-1" edge="1">
          <mxGeometry relative="1" as="geometry">
            <mxPoint x="155" y="640" as="sourcePoint" />
            <mxPoint x="156" y="800" as="targetPoint" />
          </mxGeometry>
        </mxCell>
        <mxCell id="LoxbZ-BBBxb4CLW1c9WT-71" value="n/1" style="text;html=1;strokeColor=none;fillColor=none;align=center;verticalAlign=middle;whiteSpace=wrap;rounded=0;" parent="WIyWlLk6GJQsqaUBKTNV-1" vertex="1">
          <mxGeometry x="-110" y="660" width="60" height="30" as="geometry" />
        </mxCell>
        <mxCell id="LoxbZ-BBBxb4CLW1c9WT-72" value="1/n" style="text;html=1;strokeColor=none;fillColor=none;align=center;verticalAlign=middle;whiteSpace=wrap;rounded=0;" parent="WIyWlLk6GJQsqaUBKTNV-1" vertex="1">
          <mxGeometry x="-110" y="720" width="60" height="30" as="geometry" />
        </mxCell>
        <mxCell id="LoxbZ-BBBxb4CLW1c9WT-74" style="edgeStyle=orthogonalEdgeStyle;rounded=0;orthogonalLoop=1;jettySize=auto;html=1;entryX=1.025;entryY=0.116;entryDx=0;entryDy=0;entryPerimeter=0;" parent="WIyWlLk6GJQsqaUBKTNV-1" target="LoxbZ-BBBxb4CLW1c9WT-41" edge="1">
          <mxGeometry relative="1" as="geometry">
            <mxPoint x="-197" y="274" as="sourcePoint" />
            <mxPoint x="-568" y="274" as="targetPoint" />
          </mxGeometry>
        </mxCell>
        <mxCell id="LoxbZ-BBBxb4CLW1c9WT-75" value="1/n" style="text;html=1;strokeColor=none;fillColor=none;align=center;verticalAlign=middle;whiteSpace=wrap;rounded=0;" parent="WIyWlLk6GJQsqaUBKTNV-1" vertex="1">
          <mxGeometry x="-302" y="236" width="60" height="30" as="geometry" />
        </mxCell>
        <mxCell id="LoxbZ-BBBxb4CLW1c9WT-27" style="edgeStyle=orthogonalEdgeStyle;rounded=0;orthogonalLoop=1;jettySize=auto;html=1;" parent="WIyWlLk6GJQsqaUBKTNV-1" edge="1">
          <mxGeometry relative="1" as="geometry">
            <mxPoint x="-352" y="640" as="sourcePoint" />
            <mxPoint x="-352" y="790" as="targetPoint" />
          </mxGeometry>
        </mxCell>
        <mxCell id="LoxbZ-BBBxb4CLW1c9WT-78" value="1/n" style="text;html=1;strokeColor=none;fillColor=none;align=center;verticalAlign=middle;whiteSpace=wrap;rounded=0;" parent="WIyWlLk6GJQsqaUBKTNV-1" vertex="1">
          <mxGeometry x="153" y="690" width="60" height="30" as="geometry" />
        </mxCell>
        <mxCell id="LoxbZ-BBBxb4CLW1c9WT-79" value="1/n" style="text;html=1;strokeColor=none;fillColor=none;align=center;verticalAlign=middle;whiteSpace=wrap;rounded=0;" parent="WIyWlLk6GJQsqaUBKTNV-1" vertex="1">
          <mxGeometry x="-410" y="680" width="60" height="30" as="geometry" />
        </mxCell>
      </root>
    </mxGraphModel>
  </diagram>
</mxfile>
